<svg xmlns="http://www.w3.org/2000/svg" viewBox="0 0 800 520" role="img" aria-label="NO DATA">
  <defs>
    <linearGradient id="bg" x1="0" x2="1" y1="0" y2="1">
      <stop offset="0" stop-color="#07100b"/>
      <stop offset="1" stop-color="#010302"/>
    </linearGradient>
    <pattern id="grid" width="40" height="40" patternUnits="userSpaceOnUse">
      <path d="M40 0H0V40" fill="none" stroke="#6f8050" stroke-opacity=".18" stroke-width="1"/>
    </pattern>
    <pattern id="scan" width="8" height="8" patternUnits="userSpaceOnUse">
      <path d="M0 1H8" stroke="#d8ef78" stroke-opacity=".08"/>
    </pattern>
  </defs>
  <rect width="800" height="520" fill="url(#bg)"/>
  <rect width="800" height="520" fill="url(#grid)"/>
  <rect width="800" height="520" fill="url(#scan)"/>
  <rect x="34" y="34" width="732" height="452" rx="10" fill="none" stroke="#b9d766" stroke-opacity=".22" stroke-width="2"/>
  <path d="M140 115H660V405H140Z" fill="#000" fill-opacity=".28" stroke="#b9d766" stroke-opacity=".18" stroke-width="2"/>
  <path d="M165 145H635M165 375H635M195 145V375M605 145V375" stroke="#b9d766" stroke-opacity=".12" stroke-width="2"/>
  <path d="M320 170H480L525 250V350H275V250Z" fill="none" stroke="#c69648" stroke-opacity=".62" stroke-width="6"/>
  <path d="M480 170V250H525" fill="none" stroke="#c69648" stroke-opacity=".62" stroke-width="6"/>
  <path d="M300 320L500 190M300 190L500 320" stroke="#ba4037" stroke-opacity=".72" stroke-width="10"/>
  <text x="400" y="444" fill="#b9d766" fill-opacity=".9" font-family="Consolas, monospace" font-size="42" font-weight="700" text-anchor="middle">NO DATA</text>
  <text x="400" y="477" fill="#ddd9c9" fill-opacity=".42" font-family="Consolas, monospace" font-size="18" text-anchor="middle">IMAGE STREAM DAMAGED / ARCHIVE LOST</text>
</svg>
